<?xml version="1.0" encoding="UTF-8"?>
<svg version="1.1" xmlns="http://www.w3.org/2000/svg" width="5000" height="5000">
<path d="M0 0 C1.24523438 0.31839844 2.49046875 0.63679688 3.7734375 0.96484375 C11.19760167 2.94405456 18.60082856 5.40124284 23 12 C23.75384484 16.14614663 23.16685882 17.73989655 20.875 21.3125 C17.2878608 25.1710067 12.89406388 27.77542017 8.453125 30.52709961 C-0.90774623 36.35679313 -8.93794586 43.73520551 -16.98046875 51.2265625 C-19.10423192 53.20070233 -21.28001353 55.09598545 -23.48535156 56.97827148 C-28.98023414 61.78106859 -34.10214183 66.95773413 -39.25390625 72.12109375 C-40.32414967 73.19066164 -41.39454134 74.26008121 -42.46507263 75.32936096 C-44.69635913 77.55918224 -46.92585057 79.7907784 -49.15405273 82.02368164 C-51.99031888 84.86564432 -54.83105231 87.70309242 -57.67315769 90.53921413 C-59.88076333 92.74318226 -62.08595221 94.94955619 -64.29044914 97.15663338 C-65.33615979 98.20300449 -66.38259535 99.24865174 -67.42981148 100.29351616 C-72.67250521 105.52701399 -77.83839884 110.78424153 -82.64610291 116.42591858 C-84.33429635 118.38866297 -86.13815272 120.20235435 -88 122 C-91.10246002 125.06117253 -93.98106424 128.23142268 -96.8203125 131.53515625 C-99.81343337 134.91985028 -102.90827399 138.20549159 -106 141.5 C-110.19978651 145.97933463 -114.36695265 150.46855521 -118.37109375 155.125 C-120.33665089 157.38751181 -122.35673309 159.59690683 -124.375 161.8125 C-127.48528851 165.25378205 -130.46478312 168.76321298 -133.375 172.375 C-136.61952517 176.38826284 -139.98747183 180.22415384 -143.5 184 C-147.71346489 188.53339224 -151.68293295 193.20950239 -155.5625 198.03125 C-158.42925516 201.52281077 -161.39760184 204.91540154 -164.375 208.3125 C-169.08789871 213.70306595 -173.59363432 219.20898388 -177.97607422 224.87036133 C-181.05417467 228.83454772 -184.23487496 232.68876113 -187.5 236.5 C-192.72201362 242.60532547 -197.69115196 248.88687031 -202.62060547 255.22949219 C-204.46284529 257.59408036 -206.31886245 259.94767548 -208.17480469 262.30151367 C-223.57971654 281.85035765 -238.56827829 301.72109212 -253 322 C-253.54978516 322.7724707 -254.09957031 323.54494141 -254.66601562 324.34082031 C-312.37277519 405.64278895 -348.04775221 483.23605307 -363.6875 640.9375 C-363.74834778 641.99057343 -363.80919556 643.04364685 -363.87188721 644.12863159 C-365.66775866 675.71947463 -366.20981967 707.30184094 -366.1875 738.9375 C-366.18723312 739.79397377 -366.18696625 740.65044754 -366.18669128 741.53287506 C-366.15719561 817.53903437 -362.53636019 893.39222328 -356.1484375 972.84375 C-356.0517981 974.04237167 -355.95515869 975.24099335 -355.85559082 976.47593689 C-355.38861816 982.25096877 -354.91390395 988.02519825 -354.42700195 993.79858398 C-353.26024144 1007.89519994 -352.63626056 1021.92087143 -352.4375 1036.0625 C-352.39307999 1038.93378057 -352.34629476 1041.8049714 -352.29469299 1044.6761322 C-352.26351211 1046.43026019 -352.23640743 1048.18446812 -352.21446228 1049.93873596 C-352.13498039 1054.63060009 -351.79126164 1059.20610912 -351.22953796 1063.86381531 C-343.80173964 1132.99028488 -376.63483167 1198.44092301 -411 1256 C-411.71052749 1257.1946809 -412.42080611 1258.38950984 -413.13085938 1259.58447266 C-423.20287184 1276.52823476 -433.48000559 1293.32976215 -444 1310 C-445.07059059 1311.7029502 -446.14091226 1313.40606951 -447.2109375 1315.109375 C-448.22369861 1316.71891345 -449.23670545 1318.32829732 -450.25 1319.9375 C-450.67265137 1320.60934326 -451.09530273 1321.28118652 -451.53076172 1321.97338867 C-460.7290722 1336.53593781 -470.19985172 1350.92621109 -479.6706543 1365.31225586 C-480.93489225 1367.23365609 -482.19790781 1369.15586118 -483.4597168 1371.07885742 C-490.12161482 1381.2313456 -496.81799302 1391.33046757 -503.94604492 1401.1628418 C-506.48570967 1404.67091788 -508.93970761 1408.23165562 -511.375 1411.8125 C-520.29287154 1424.84287371 -529.46023061 1437.69224016 -538.7265625 1450.4765625 C-540.87691382 1453.44366447 -543.01730316 1456.41750504 -545.1484375 1459.3984375 C-551.60733973 1468.41849055 -558.22768965 1477.2957631 -564.97875977 1486.09936523 C-569.47651193 1491.97231579 -573.88728807 1497.90123513 -578.25 1503.875 C-583.39479942 1510.9084242 -588.72347535 1517.75601774 -594.20703125 1524.52734375 C-596.84302724 1527.78686981 -599.39895248 1531.10184138 -601.9375 1534.4375 C-606.21692529 1540.04899493 -610.6495015 1545.52634002 -615.11523438 1550.99023438 C-618.60687237 1555.26779792 -622.04388544 1559.58189128 -625.4375 1563.9375 C-634.07672584 1575.00218969 -643.07577422 1585.77902569 -652.17016602 1596.47119141 C-654.96584681 1599.76198908 -657.71518979 1603.08583851 -660.4375 1606.4375 C-665.33116358 1612.44573465 -670.38026792 1618.31459133 -675.43847656 1624.18408203 C-677.0025853 1626.00300648 -678.56081076 1627.82680079 -680.1171875 1629.65234375 C-684.58231923 1634.88639972 -689.05663329 1640.09837044 -693.6875 1645.1875 C-696.62242751 1648.41539711 -699.40416026 1651.71508353 -702.125 1655.125 C-706.65245123 1660.72851799 -711.54350093 1665.94940933 -716.50830078 1671.16650391 C-720.2270723 1675.07835601 -723.83699179 1679.05945825 -727.37451172 1683.13598633 C-729.62362313 1685.71513406 -731.93178417 1688.23267361 -734.25 1690.75 C-735.20708051 1691.79031927 -736.16411035 1692.83068515 -737.12109375 1693.87109375 C-737.84014893 1694.65202393 -737.84014893 1694.65202393 -738.57373047 1695.44873047 C-740.82571341 1697.89807994 -743.06792651 1700.35636141 -745.3125 1702.8125 C-749.60494961 1707.49779935 -753.92098043 1712.16097797 -758.25 1716.8125 C-759.0994519 1717.72769409 -759.0994519 1717.72769409 -759.96606445 1718.66137695 C-762.75238987 1721.64919201 -765.57319549 1724.58266435 -768.484375 1727.44921875 C-770.83506101 1729.77890495 -773.04074874 1732.16919564 -775.1875 1734.6875 C-780.62962222 1740.99210142 -786.67946167 1746.73475192 -792.60253906 1752.58203125 C-797.94495654 1757.86221333 -803.20562485 1763.13831469 -808.08642578 1768.85498047 C-812.12408149 1773.38098749 -816.47390538 1777.62071878 -820.76977539 1781.90014648 C-822.43426277 1783.5592732 -824.09333447 1785.22368051 -825.75195312 1786.88867188 C-830.67787341 1791.81735575 -835.63987894 1796.63259549 -840.94165039 1801.15991211 C-845.66659611 1805.38383761 -850.05010287 1809.9896384 -854.5 1814.5 C-860.28407018 1820.36266318 -866.04323678 1826.1786705 -872.31054688 1831.53320312 C-874.6610293 1833.57391099 -876.82931492 1835.77064776 -879 1838 C-882.47752665 1841.57151386 -886.10921324 1844.86412812 -889.87207031 1848.12597656 C-893.45863534 1851.28458982 -896.91000027 1854.58431995 -900.375 1857.875 C-905.75016442 1862.95703709 -911.14887715 1868.00001978 -916.671875 1872.921875 C-919.34049516 1875.30393192 -921.98273569 1877.71375334 -924.625 1880.125 C-928.37458341 1883.53801491 -932.15523412 1886.90721031 -935.984375 1890.23046875 C-938.28607764 1892.25114956 -940.54764379 1894.31312618 -942.8125 1896.375 C-946.25378205 1899.48528851 -949.76321298 1902.46478312 -953.375 1905.375 C-957.38826284 1908.61952517 -961.22415384 1911.98747183 -965 1915.5 C-969.52991325 1919.71023142 -974.20292164 1923.67637846 -979.01953125 1927.5546875 C-982.57291194 1930.47004309 -986.03710062 1933.47826749 -989.5 1936.5 C-994.60289833 1940.9458564 -999.75291536 1945.3126403 -1005.01171875 1949.57421875 C-1008.02320636 1952.01883811 -1011.01749418 1954.48320479 -1014.0090332 1956.95214844 C-1025.84145461 1966.71724439 -1037.69194242 1976.45653958 -1049.77978516 1985.90478516 C-1054.06750344 1989.25779789 -1058.31923992 1992.65346388 -1062.5625 1996.0625 C-1068.66896061 2000.95965262 -1074.83421506 2005.77419072 -1081.05908203 2010.52001953 C-1083.30004086 2012.22878587 -1085.53860152 2013.94067444 -1087.77734375 2015.65234375 C-1116.73087257 2037.76992484 -1145.96374485 2059.50589318 -1175.78417969 2080.44335938 C-1178.06879322 2082.04832807 -1180.35082135 2083.65693045 -1182.6328125 2085.265625 C-1219.41425085 2111.15190173 -1256.96290048 2136.0006382 -1295 2160 C-1295.9389209 2160.59248535 -1296.8778418 2161.1849707 -1297.84521484 2161.79541016 C-1323.60578574 2178.02600847 -1349.67613507 2193.70404816 -1376 2209 C-1377.68270996 2209.97864014 -1377.68270996 2209.97864014 -1379.39941406 2210.97705078 C-1401.15104416 2223.61495856 -1423.06402097 2235.93916489 -1445.2109375 2247.87109375 C-1448.87239548 2249.84493372 -1452.52399911 2251.83464386 -1456.1640625 2253.84765625 C-1482.54095466 2268.42097123 -1509.54288577 2281.82417444 -1536.47689056 2295.32883453 C-1538.39913285 2296.29325066 -1540.32066807 2297.25906122 -1542.24200439 2298.22528076 C-1559.02808493 2306.6635042 -1575.9238842 2314.78708839 -1593.00131226 2322.62142944 C-1596.35479121 2324.16310625 -1599.70014821 2325.72148103 -1603.04327393 2327.28544617 C-1629.0978368 2339.47199042 -1655.50907749 2350.80004327 -1682 2362 C-1682.85952271 2362.36391846 -1683.71904541 2362.72783691 -1684.60461426 2363.1027832 C-1772.77994839 2400.43299472 -1863.30014257 2432.83128498 -1994 2471 C-1995.03972961 2471.29028076 -1996.07945923 2471.58056152 -1997.1506958 2471.87963867 C-2079.87348973 2494.92636806 -2163.6380261 2514.01138738 -2676.125 2570.5625 C-2677.32366699 2570.58334656 -2678.52233398 2570.60419312 -2679.75732422 2570.62567139 C-2702.84086796 2571.01974545 -2725.91384236 2571.20624716 -2749 2571 C-2750.00393799 2570.99139954 -2751.00787598 2570.98279907 -2752.04223633 2570.97393799 C-2837.85135057 2570.20294708 -2923.64085208 2565.41558714 -3564.36356354 2438.52667236 C-3643.23501884 2412.43530323 -3643.23501884 2412.43530323 -3725 2399 C-3726.03205566 2398.91540527 -3726.03205566 2398.91540527 -3727.08496094 2398.82910156 C-3781.29889004 2394.49301353 -3841.00600746 2405.97646202 -3883.76318359 2441.46337891 C-3887.2967658 2444.51942182 -3890.65943589 2447.73367064 -3894 2451 C-3895.19689453 2452.12148438 -3895.19689453 2452.12148438 -3896.41796875 2453.265625 C-3901.69604476 2458.3165893 -3905.94576258 2463.74877571 -3910.15234375 2469.69140625 C-3911.06693359 2470.83416016 -3911.06693359 2470.83416016 -3912 2472 C-3912.66 2472 -3913.32 2472 -3914 2472 C-3927.77224807 2410.57577359 -3914.74567974 2347.43943199 -3881.54003906 2294.40625 C-3877.9247013 2288.75742802 -3874.06928755 2283.32886695 -3870 2278 C-3869.56478027 2277.4234668 -3869.12956055 2276.84693359 -3868.68115234 2276.25292969 C-3862.96616107 2268.70560404 -3856.9458809 2261.56256696 -3850.47265625 2254.65625 C-3848.48316736 2252.51904234 -3846.57155725 2250.35375946 -3844.6875 2248.125 C-3836.85821851 2239.10430611 -3828.13368607 2230.68546197 -3819 2223 C-3817.95324533 2222.09120311 -3816.90779662 2221.18090096 -3815.86328125 2220.26953125 C-3751.82305382 2164.5530967 -3672.54540392 2125.88277427 -3571 2089 C-3570.27248535 2088.74732361 -3569.5449707 2088.49464722 -3568.79541016 2088.23431396 C-3483.64944897 2058.68390678 -3395.45663694 2039.92185456 -3223.15234375 2015.84765625 C-3221.93651371 2015.70697066 -3221.93651371 2015.70697066 -3220.69612145 2015.56344295 C-3191.07810754 2012.13821099 -3161.43091287 2009.04400974 -3131.76171875 2006.09765625 C-3130.72644326 2005.99484219 -3129.69116777 2005.89202812 -3128.6245203 2005.78609848 C-3112.64660305 2004.2004821 -3096.66714816 2002.63055856 -3080.6875 2001.0625 C-3063.69064894 1999.39435516 -3046.69422779 1997.72197689 -3029.69921875 1996.03515625 C-3028.65958772 1995.9319875 -3027.61995669 1995.82881876 -3026.54882169 1995.72252369 C-2994.99100564 1992.58796299 -2963.45913929 1989.25684849 -2931.9453125 1985.70703125 C-2930.60198211 1985.55599154 -2930.60198211 1985.55599154 -2929.23151374 1985.40190053 C-2908.77080621 1983.10047308 -2888.32346791 1980.69910397 -2867.88696289 1978.19165039 C-2866.9996565 1978.08279625 -2866.11235011 1977.9739421 -2865.19815564 1977.86178935 C-2793.59989716 1969.06309055 -2722.1410187 1958.96091229 -2651 1947 C-2650.29873238 1946.8821389 -2649.59746475 1946.7642778 -2648.87494659 1946.64284515 C-2573.86662442 1934.02034712 -2499.03304834 1919.47517389 -2425 1902 C-2423.73113953 1901.70154175 -2422.46227905 1901.4030835 -2421.15496826 1901.09558105 C-2346.33559637 1883.49388259 -2272.23501857 1863.37069277 -2199 1840 C-2197.99918396 1839.68135986 -2196.99836792 1839.36271973 -2195.96722412 1839.03442383 C-2113.02646897 1812.61462773 -2031.32073397 1781.90375977 -1952 1746 C-1950.67245552 1745.40165077 -1949.34481492 1744.80351479 -1948.01708984 1744.20556641 C-1925.81450301 1734.19964601 -1903.83663601 1723.78016974 -1882 1713 C-1881.20368164 1712.60731934 -1880.40736328 1712.21463867 -1879.58691406 1711.81005859 C-1861.0994383 1702.69079085 -1842.68328019 1693.51031527 -1824.67285156 1683.47314453 C-1820.62281692 1681.24096431 -1816.53746271 1679.07597847 -1812.45605469 1676.90185547 C-1800.83772459 1670.70439091 -1789.40362495 1664.25240583 -1778.0625 1657.5625 C-1773.91296794 1655.11492445 -1769.74627452 1652.70107319 -1765.5625 1650.3125 C-1751.81328193 1642.46180926 -1738.30405188 1634.3144959 -1724.92822266 1625.84423828 C-1722.07045639 1624.04437448 -1719.20034742 1622.26643904 -1716.32421875 1620.49609375 C-1698.92424772 1609.76650725 -1681.94546708 1598.42906101 -1665 1587 C-1664.14903748 1586.42614563 -1664.14903748 1586.42614563 -1663.28088379 1585.84069824 C-1650.74425043 1577.38146327 -1638.30701122 1568.78989455 -1626 1560 C-1625.29488281 1559.49823242 -1624.58976562 1558.99646484 -1623.86328125 1558.47949219 C-1612.14442888 1550.13217679 -1600.67990836 1541.47643226 -1589.26025391 1532.72558594 C-1586.45967979 1530.58749371 -1583.63920427 1528.47841203 -1580.8125 1526.375 C-1567.88103474 1516.69939441 -1555.23404374 1506.66536576 -1542.74414062 1496.42822266 C-1541.17091076 1495.13995352 -1539.59351752 1493.85677275 -1538.015625 1492.57421875 C-1532.56821003 1488.1422901 -1527.18846641 1483.63744717 -1521.83959961 1479.08764648 C-1518.38821312 1476.15691459 -1514.8976381 1473.28270769 -1511.375 1470.4375 C-1506.67644049 1466.61736683 -1502.21786234 1462.58288744 -1497.765625 1458.48046875 C-1494.99482399 1455.99535768 -1492.14948638 1453.64555667 -1489.25 1451.3125 C-1485.48409071 1448.27306399 -1482.01545839 1445.13405584 -1478.65234375 1441.66015625 C-1476.95636406 1439.95615774 -1475.19510304 1438.38285917 -1473.375 1436.8125 C-1468.10615137 1432.25892527 -1463.01277618 1427.52020206 -1457.91410828 1422.77853394 C-1456.69082217 1421.64189194 -1455.4664138 1420.50645579 -1454.24055481 1419.37258911 C-1441.5791659 1407.65163797 -1429.35219616 1395.50824197 -1417.16699219 1383.29736328 C-1414.4016398 1380.52625038 -1411.63173085 1377.75974187 -1408.86053276 1374.99447632 C-1406.6915509 1372.82912624 -1404.52497834 1370.66137803 -1402.35910416 1368.49291992 C-1401.33851241 1367.47166946 -1400.3172007 1366.4511379 -1399.29510117 1365.43139648 C-1394.16469289 1360.31025848 -1389.13977062 1355.15949998 -1384.41989136 1349.65570068 C-1382.71352675 1347.66595053 -1380.93808384 1345.75171531 -1379.1328125 1343.8515625 C-1378.47933838 1343.16143066 -1377.82586426 1342.47129883 -1377.15258789 1341.76025391 C-1376.48348389 1341.05562012 -1375.81437988 1340.35098633 -1375.125 1339.625 C-1367.73503056 1331.80072487 -1360.39447628 1324.00059104 -1353.625 1315.625 C-1350.38045089 1311.61170754 -1347.01225907 1307.77611928 -1343.5 1304 C-1339.32376719 1299.50069606 -1335.35483426 1294.88249996 -1331.50390625 1290.1015625 C-1329.00706265 1287.00874844 -1326.47808255 1283.94491771 -1323.94262695 1280.88378906 C-1317.66553881 1273.29900935 -1311.49617954 1265.64329615 -1305.45556641 1257.86914062 C-1303.8758191 1255.84053523 -1302.287855 1253.81852574 -1300.69921875 1251.796875 C-1292.24874266 1241.02047094 -1284.0584584 1230.07200292 -1276 1219 C-1275.4548877 1218.25250488 -1274.90977539 1217.50500977 -1274.34814453 1216.73486328 C-1270.53987934 1211.50807936 -1266.76154047 1206.26049169 -1263 1201 C-1262.47535156 1200.26861816 -1261.95070313 1199.53723633 -1261.41015625 1198.78369141 C-1225.86788108 1149.10923408 -1194.63014023 1096.30863737 -1166.96289062 1041.89001465 C-1165.99306852 1039.98639451 -1165.01867317 1038.08518142 -1164.04296875 1036.18457031 C-1153.23847339 1015.12175336 -1143.42590478 993.71102984 -1134 972 C-1133.60923279 971.10013367 -1133.21846558 970.20026733 -1132.81585693 969.27313232 C-1130.71529391 964.43491682 -1128.61598025 959.59615963 -1126.5168457 954.75732422 C-1125.65709071 952.77570447 -1124.79730877 950.79409641 -1123.9375 948.8125 C-1123.51254242 947.83299377 -1123.08758484 946.85348755 -1122.64974976 945.84429932 C-1064.63849079 812.19314273 -1064.63849079 812.19314273 -1008 771 C-1006.94425781 770.22269531 -1005.88851562 769.44539063 -1004.80078125 768.64453125 C-978.61437042 749.93074934 -947.5426649 736.76534803 -915.53369141 732.54272461 C-901.66843724 730.56797629 -888.92792789 725.64986091 -875.84903717 720.79335785 C-872.48119838 719.54646572 -869.10727217 718.31626143 -865.73388672 717.08447266 C-860.17849413 715.0540044 -854.62625616 713.01514529 -849.07617188 710.97021484 C-838.2271919 706.97410675 -827.35663656 703.037602 -816.48779297 699.09591675 C-811.99518426 697.464802 -807.50475171 695.827743 -803.01428223 694.19075012 C-792.47054166 690.34719864 -781.9189463 686.52640757 -771.359375 682.7265625 C-737.75578586 670.62310718 -704.95819031 657.99585226 -673 642 C-672.04689941 641.52739746 -671.09379883 641.05479492 -670.11181641 640.56787109 C-648.23664736 629.67601725 -627.46849864 616.76270142 -608 602 C-607.39381836 601.54399414 -606.78763672 601.08798828 -606.16308594 600.61816406 C-591.07806317 589.25639539 -575.91355743 577.34300972 -562.75 563.75390625 C-560.92548524 561.92531891 -559.02321312 560.24365832 -557.0625 558.5625 C-550.59331977 552.98124647 -544.69019755 546.90349993 -539.13671875 540.41796875 C-536.80248216 537.77648347 -534.39566597 535.21443459 -531.97680664 532.65063477 C-526.51142143 526.85667794 -521.23007246 521.01424207 -516.2578125 514.78515625 C-514.14484409 512.17867446 -511.97131845 509.64472985 -509.76660156 507.11645508 C-503.65748161 500.10158827 -497.95633586 492.83971982 -492.3515625 485.41796875 C-489.53021897 481.68296054 -486.65586888 477.99277217 -483.76489258 474.31152344 C-476.81493028 465.45510447 -470.15662314 456.42167058 -463.61767578 447.25878906 C-461.98241306 444.97544304 -460.33516303 442.7012618 -458.68359375 440.4296875 C-452.65800305 432.1397311 -446.72441866 423.79883478 -440.95361328 415.3293457 C-439.0126508 412.48275126 -437.06828793 409.63854095 -435.12011719 406.796875 C-426.94880023 394.87600875 -418.83216859 382.91896865 -410.75 370.9375 C-410.11393829 369.99480255 -409.47787659 369.0521051 -408.82254028 368.08084106 C-400.981415 356.45460714 -393.19397087 344.80032952 -385.55541992 333.03979492 C-379.24795409 323.34207598 -372.85263538 313.70346892 -366.44192505 304.07376099 C-365.20902129 302.22137239 -363.97695698 300.36842475 -362.74581909 298.51486206 C-353.83626174 285.10394282 -344.75722652 271.85913572 -335.0625 259 C-334.56580811 258.3397583 -334.06911621 257.6795166 -333.55737305 256.99926758 C-322.63205164 242.52732561 -311.18990747 228.48922213 -299.43261719 214.68701172 C-298.01400845 213.01649597 -296.60406198 211.33898958 -295.1953125 209.66015625 C-285.2801171 197.89909186 -274.78201593 186.65824123 -263.82543945 175.86108398 C-261.94914513 173.94815211 -260.18589159 171.96744942 -258.4375 169.9375 C-254.05201445 164.85748054 -249.41307004 160.17538429 -244.3125 155.8125 C-240.69857016 152.7038186 -237.34740988 149.38861358 -234 146 C-230.13703054 142.09450793 -226.23261556 138.32869341 -222.046875 134.765625 C-219.54285151 132.6056658 -217.12002302 130.36512007 -214.6875 128.125 C-210.22126486 124.05140091 -205.63078621 120.19172297 -200.92578125 116.3984375 C-198.27768561 114.22763547 -195.68853577 112.00705377 -193.10766602 109.7578125 C-186.0927862 103.65327569 -178.83564736 97.95181798 -171.4140625 92.3515625 C-168.44405381 90.10858033 -165.5043485 87.83314766 -162.5859375 85.5234375 C-153.50510249 78.34171224 -144.2390355 71.60229792 -134.6328125 65.140625 C-130.98770948 62.68640657 -127.40665446 60.15755677 -123.84326172 57.58666992 C-99.90260218 40.35503627 -74.01640793 25.37019279 -47.95263672 11.59716797 C-44.76747628 9.87422108 -41.63898664 8.06622263 -38.50390625 6.25390625 C-24.52408279 -1.59486387 -15.41791628 -5.10834576 0 0 Z " fill="#F80000" transform="translate(4448,1216)"/>
<path d="M0 0 C1.24523438 0.31839844 2.49046875 0.63679688 3.7734375 0.96484375 C11.19760167 2.94405456 18.60082856 5.40124284 23 12 C23.75384484 16.14614663 23.16685882 17.73989655 20.875 21.3125 C17.2878608 25.1710067 12.89406388 27.77542017 8.453125 30.52709961 C-0.90774623 36.35679313 -8.93794586 43.73520551 -16.98046875 51.2265625 C-19.10423192 53.20070233 -21.28001353 55.09598545 -23.48535156 56.97827148 C-28.98023414 61.78106859 -34.10214183 66.95773413 -39.25390625 72.12109375 C-40.32414967 73.19066164 -41.39454134 74.26008121 -42.46507263 75.32936096 C-44.69635913 77.55918224 -46.92585057 79.7907784 -49.15405273 82.02368164 C-51.99031888 84.86564432 -54.83105231 87.70309242 -57.67315769 90.53921413 C-59.88076333 92.74318226 -62.08595221 94.94955619 -64.29044914 97.15663338 C-65.33615979 98.20300449 -66.38259535 99.24865174 -67.42981148 100.29351616 C-72.67250521 105.52701399 -77.83839884 110.78424153 -82.64610291 116.42591858 C-84.33429635 118.38866297 -86.13815272 120.20235435 -88 122 C-91.10246002 125.06117253 -93.98106424 128.23142268 -96.8203125 131.53515625 C-99.81343337 134.91985028 -102.90827399 138.20549159 -106 141.5 C-110.19978651 145.97933463 -114.36695265 150.46855521 -118.37109375 155.125 C-120.33665089 157.38751181 -122.35673309 159.59690683 -124.375 161.8125 C-127.48528851 165.25378205 -130.46478312 168.76321298 -133.375 172.375 C-136.61952517 176.38826284 -139.98747183 180.22415384 -143.5 184 C-147.71346489 188.53339224 -151.68293295 193.20950239 -155.5625 198.03125 C-158.42925516 201.52281077 -161.39760184 204.91540154 -164.375 208.3125 C-169.08789871 213.70306595 -173.59363432 219.20898388 -177.97607422 224.87036133 C-181.05417467 228.83454772 -184.23487496 232.68876113 -187.5 236.5 C-192.72201362 242.60532547 -197.69115196 248.88687031 -202.62060547 255.22949219 C-204.46284529 257.59408036 -206.31886245 259.94767548 -208.17480469 262.30151367 C-223.57971654 281.85035765 -238.56827829 301.72109212 -253 322 C-253.54978516 322.7724707 -254.09957031 323.54494141 -254.66601562 324.34082031 C-312.37277519 405.64278895 -348.04775221 483.23605307 -363.6875 640.9375 C-363.74834778 641.99057343 -363.80919556 643.04364685 -363.87188721 644.12863159 C-365.66775866 675.71947463 -366.20981967 707.30184094 -366.1875 738.9375 C-366.18723312 739.79397377 -366.18696625 740.65044754 -366.18669128 741.53287506 C-366.15719561 817.53903437 -362.53636019 893.39222328 -356.1484375 972.84375 C-356.0517981 974.04237167 -355.95515869 975.24099335 -355.85559082 976.47593689 C-355.38861816 982.25096877 -354.91390395 988.02519825 -354.42700195 993.79858398 C-353.26024144 1007.89519994 -352.63626056 1021.92087143 -352.4375 1036.0625 C-352.39307999 1038.93378057 -352.34629476 1041.8049714 -352.29469299 1044.6761322 C-352.26351211 1046.43026019 -352.23640743 1048.18446812 -352.21446228 1049.93873596 C-352.13498039 1054.63060009 -351.79126164 1059.20610912 -351.22953796 1063.86381531 C-343.80173964 1132.99028488 -376.63483167 1198.44092301 -411 1256 C-411.71052749 1257.1946809 -412.42080611 1258.38950984 -413.13085938 1259.58447266 C-423.20287184 1276.52823476 -433.48000559 1293.32976215 -444 1310 C-445.07059059 1311.7029502 -446.14091226 1313.40606951 -447.2109375 1315.109375 C-448.22369861 1316.71891345 -449.23670545 1318.32829732 -450.25 1319.9375 C-450.67265137 1320.60934326 -451.09530273 1321.28118652 -451.53076172 1321.97338867 C-460.7290722 1336.53593781 -470.19985172 1350.92621109 -479.6706543 1365.31225586 C-480.93489225 1367.23365609 -482.19790781 1369.15586118 -483.4597168 1371.07885742 C-490.12161482 1381.2313456 -496.81799302 1391.33046757 -503.94604492 1401.1628418 C-506.48570967 1404.67091788 -508.93970761 1408.23165562 -511.375 1411.8125 C-520.29287154 1424.84287371 -529.46023061 1437.69224016 -538.7265625 1450.4765625 C-540.87691382 1453.44366447 -543.01730316 1456.41750504 -545.1484375 1459.3984375 C-551.60733973 1468.41849055 -558.22768965 1477.2957631 -564.97875977 1486.09936523 C-569.47651193 1491.97231579 -573.88728807 1497.90123513 -578.25 1503.875 C-583.39479942 1510.9084242 -588.72347535 1517.75601774 -594.20703125 1524.52734375 C-596.84302724 1527.78686981 -599.39895248 1531.10184138 -601.9375 1534.4375 C-606.21692529 1540.04899493 -610.6495015 1545.52634002 -615.11523438 1550.99023438 C-618.60687237 1555.26779792 -622.04388544 1559.58189128 -625.4375 1563.9375 C-634.07672584 1575.00218969 -643.07577422 1585.77902569 -652.17016602 1596.47119141 C-654.96584681 1599.76198908 -657.71518979 1603.08583851 -660.4375 1606.4375 C-665.33116358 1612.44573465 -670.38026792 1618.31459133 -675.43847656 1624.18408203 C-677.0025853 1626.00300648 -678.56081076 1627.82680079 -680.1171875 1629.65234375 C-684.58231923 1634.88639972 -689.05663329 1640.09837044 -693.6875 1645.1875 C-696.62242751 1648.41539711 -699.40416026 1651.71508353 -702.125 1655.125 C-706.65245123 1660.72851799 -711.54350093 1665.94940933 -716.50830078 1671.16650391 C-720.2270723 1675.07835601 -723.83699179 1679.05945825 -727.37451172 1683.13598633 C-729.62362313 1685.71513406 -731.93178417 1688.23267361 -734.25 1690.75 C-735.20708051 1691.79031927 -736.16411035 1692.83068515 -737.12109375 1693.87109375 C-737.84014893 1694.65202393 -737.84014893 1694.65202393 -738.57373047 1695.44873047 C-740.82571341 1697.89807994 -743.06792651 1700.35636141 -745.3125 1702.8125 C-749.60494961 1707.49779935 -753.92098043 1712.16097797 -758.25 1716.8125 C-759.0994519 1717.72769409 -759.0994519 1717.72769409 -759.96606445 1718.66137695 C-762.75238987 1721.64919201 -765.57319549 1724.58266435 -768.484375 1727.44921875 C-770.83506101 1729.77890495 -773.04074874 1732.16919564 -775.1875 1734.6875 C-780.62962222 1740.99210142 -786.67946167 1746.73475192 -792.60253906 1752.58203125 C-797.94495654 1757.86221333 -803.20562485 1763.13831469 -808.08642578 1768.85498047 C-812.12408149 1773.38098749 -816.47390538 1777.62071878 -820.76977539 1781.90014648 C-822.43426277 1783.5592732 -824.09333447 1785.22368051 -825.75195312 1786.88867188 C-830.67787341 1791.81735575 -835.63987894 1796.63259549 -840.94165039 1801.15991211 C-845.66659611 1805.38383761 -850.05010287 1809.9896384 -854.5 1814.5 C-860.28407018 1820.36266318 -866.04323678 1826.1786705 -872.31054688 1831.53320312 C-874.6610293 1833.57391099 -876.82931492 1835.77064776 -879 1838 C-882.47752665 1841.57151386 -886.10921324 1844.86412812 -889.87207031 1848.12597656 C-893.45863534 1851.28458982 -896.91000027 1854.58431995 -900.375 1857.875 C-905.75016442 1862.95703709 -911.14887715 1868.00001978 -916.671875 1872.921875 C-919.34049516 1875.30393192 -921.98273569 1877.71375334 -924.625 1880.125 C-928.37458341 1883.53801491 -932.15523412 1886.90721031 -935.984375 1890.23046875 C-938.28607764 1892.25114956 -940.54764379 1894.31312618 -942.8125 1896.375 C-946.25378205 1899.48528851 -949.76321298 1902.46478312 -953.375 1905.375 C-957.38826284 1908.61952517 -961.22415384 1911.98747183 -965 1915.5 C-969.52991325 1919.71023142 -974.20292164 1923.67637846 -979.01953125 1927.5546875 C-982.57291194 1930.47004309 -986.03710062 1933.47826749 -989.5 1936.5 C-994.60289833 1940.9458564 -999.75291536 1945.3126403 -1005.01171875 1949.57421875 C-1008.02320636 1952.01883811 -1011.01749418 1954.48320479 -1014.0090332 1956.95214844 C-1025.84145461 1966.71724439 -1037.69194242 1976.45653958 -1049.77978516 1985.90478516 C-1054.06750344 1989.25779789 -1058.31923992 1992.65346388 -1062.5625 1996.0625 C-1068.66896061 2000.95965262 -1074.83421506 2005.77419072 -1081.05908203 2010.52001953 C-1083.30004086 2012.22878587 -1085.53860152 2013.94067444 -1087.77734375 2015.65234375 C-1116.73087257 2037.76992484 -1145.96374485 2059.50589318 -1175.78417969 2080.44335938 C-1178.06879322 2082.04832807 -1180.35082135 2083.65693045 -1182.6328125 2085.265625 C-1219.41425085 2111.15190173 -1256.96290048 2136.0006382 -1295 2160 C-1295.9389209 2160.59248535 -1296.8778418 2161.1849707 -1297.84521484 2161.79541016 C-1323.60578574 2178.02600847 -1349.67613507 2193.70404816 -1376 2209 C-1377.68270996 2209.97864014 -1377.68270996 2209.97864014 -1379.39941406 2210.97705078 C-1401.15104416 2223.61495856 -1423.06402097 2235.93916489 -1445.2109375 2247.87109375 C-1448.87239548 2249.84493372 -1452.52399911 2251.83464386 -1456.1640625 2253.84765625 C-1482.54095466 2268.42097123 -1509.54288577 2281.82417444 -1536.47689056 2295.32883453 C-1538.39913285 2296.29325066 -1540.32066807 2297.25906122 -1542.24200439 2298.22528076 C-1559.02808493 2306.6635042 -1575.9238842 2314.78708839 -1593.00131226 2322.62142944 C-1596.35479121 2324.16310625 -1599.70014821 2325.72148103 -1603.04327393 2327.28544617 C-1629.0978368 2339.47199042 -1655.50907749 2350.80004327 -1682 2362 C-1682.85952271 2362.36391846 -1683.71904541 2362.72783691 -1684.60461426 2363.1027832 C-1772.77994839 2400.43299472 -1863.30014257 2432.83128498 -1994 2471 C-1995.03972961 2471.29028076 -1996.07945923 2471.58056152 -1997.1506958 2471.87963867 C-2079.87348973 2494.92636806 -2163.6380261 2514.01138738 -2676.125 2570.5625 C-2677.32366699 2570.58334656 -2678.52233398 2570.60419312 -2679.75732422 2570.62567139 C-2702.84086796 2571.01974545 -2725.91384236 2571.20624716 -2749 2571 C-2750.00393799 2570.99139954 -2751.00787598 2570.98279907 -2752.04223633 2570.97393799 C-2837.85135057 2570.20294708 -2923.64085208 2565.41558714 -3564.36356354 2438.52667236 C-3643.23501884 2412.43530323 -3643.23501884 2412.43530323 -3725 2399 C-3726.03205566 2398.91540527 -3726.03205566 2398.91540527 -3727.08496094 2398.82910156 C-3781.29889004 2394.49301353 -3841.00600746 2405.97646202 -3883.76318359 2441.46337891 C-3887.2967658 2444.51942182 -3890.65943589 2447.73367064 -3894 2451 C-3895.19689453 2452.12148438 -3895.19689453 2452.12148438 -3896.41796875 2453.265625 C-3901.69604476 2458.3165893 -3905.94576258 2463.74877571 -3910.15234375 2469.69140625 C-3911.06693359 2470.83416016 -3911.06693359 2470.83416016 -3912 2472 C-3912.66 2472 -3913.32 2472 -3914 2472 C-3920.70555177 2442.09323911 -3920.95316453 2411.20639964 -3916 2381 C-3915.34 2381 -3914.68 2381 -3914 2381 C-3913.76023437 2380.40703125 -3913.52046875 2379.8140625 -3913.2734375 2379.203125 C-3904.92514513 2364.76006704 -3874.62740833 2359.80101986 -3860.04008484 2355.85935974 C-3819.55039428 2345.0773984 -3777.79854465 2336.45488076 -3736 2333 C-3734.51266609 2332.87240547 -3734.51266609 2332.87240547 -3732.99528503 2332.74223328 C-3723.53237312 2331.9911369 -3714.12991322 2331.82176352 -3704.64453125 2331.796875 C-3702.98880991 2331.78981611 -3701.33308889 2331.78268339 -3699.67736816 2331.77548218 C-3694.38907446 2331.75586918 -3689.10082663 2331.75078809 -3683.8125 2331.75 C-3682.9096011 2331.74970543 -3682.00670219 2331.74941086 -3681.07644272 2331.74910736 C-3654.54426492 2331.74770839 -3628.21355215 2332.07162157 -3601.79296875 2334.72137451 C-3598.77800853 2335.02214578 -3595.76219275 2335.3129277 -3592.74609375 2335.60205078 C-3582.35434918 2336.60006746 -3571.96491041 2337.62005029 -3561.57743835 2338.66158962 C-3466.57443131 2348.18462801 -3371.3771731 2355.92861296 -3274.02700043 2362.15524483 C-3263.74041129 2362.81142403 -3253.46157232 2363.53680439 -3243.18453979 2364.32723999 C-3218.07490727 2366.25775336 -3192.93033692 2367.68861922 -3167.79272461 2369.19921875 C-3166.93779828 2369.25062452 -3166.08287195 2369.3020303 -3165.20203876 2369.35499382 C-3160.08311765 2369.66275881 -3160.08311765 2369.66275881 -3154.96413612 2369.96951675 C-3145.416154 2370.54079992 -3135.87081555 2371.13578625 -3126.3274231 2371.77952576 C-3089.59594018 2374.24330973 -3052.78352008 2375.57041918 -3016 2377 C-3014.71725315 2377.04986557 -3014.71725315 2377.04986557 -3013.40859222 2377.10073853 C-2933.10488099 2380.20177713 -2852.33730162 2380.46210936 -2242.55366516 2320.29101562 C-2237.08111271 2319.20837024 -2231.60269817 2318.16021993 -2226.12036133 2317.12817383 C-2206.35075638 2313.39468498 -2186.67098488 2309.21739549 -2167 2305 C-2165.89247375 2304.76301392 -2164.78494751 2304.52602783 -2163.64385986 2304.28186035 C-2078.91748251 2286.12910375 -1994.7080108 2265.09024907 -1521.640625 2078.45703125 C-1517.60333371 2076.22935425 -1513.52935905 2074.07140312 -1509.4597168 2071.90356445 C-1498.78450528 2066.209962 -1488.25378933 2060.32318743 -1477.83081055 2054.18017578 C-1471.07902567 2050.20107791 -1464.27657921 2046.32679364 -1457.4375 2042.5 C-1445.7809028 2035.95185191 -1434.36515538 2029.03965381 -1423 2022 C-1422.02949707 2021.39929687 -1421.05899414 2020.79859375 -1420.05908203 2020.1796875 C-1414.01838604 2016.43475478 -1407.99337824 2012.66555752 -1401.97998047 2008.87695312 C-1400.05593082 2007.66508243 -1398.13056681 2006.45529487 -1396.20361328 2005.24804688 C-1360.71189102 1982.98808036 -1326.02695487 1959.21484555 -1292.15625 1934.56347656 C-1289.98529013 1932.98933401 -1287.80651629 1931.42666111 -1285.625 1929.8671875 C-1275.62647269 1922.71009136 -1265.81138701 1915.33727299 -1256.05078125 1907.859375 C-1251.57940975 1904.43507008 -1247.07757479 1901.05384751 -1242.5625 1897.6875 C-1235.85962244 1892.68045046 -1229.26680689 1887.54513436 -1222.70898438 1882.35009766 C-1221.00308513 1881.00243725 -1219.2916741 1879.66213522 -1217.578125 1878.32421875 C-1209.87538162 1872.3065187 -1202.26729181 1866.18041263 -1194.69140625 1860.00390625 C-1191.70356942 1857.56883821 -1188.70152967 1855.15262587 -1185.6875 1852.75 C-1177.63115983 1846.3183551 -1169.68911312 1839.76011109 -1161.83447266 1833.08447266 C-1158.44103984 1830.20492259 -1155.01759017 1827.36817528 -1151.5625 1824.5625 C-1145.54704472 1819.66295526 -1139.67074441 1814.60796182 -1133.79394531 1809.54394531 C-1131.46449569 1807.53912231 -1129.12900698 1805.54141049 -1126.79345703 1803.54370117 C-1110.4391602 1789.5499843 -1110.4391602 1789.5499843 -1094.40625 1775.19140625 C-1092.31434877 1773.28628191 -1090.20036615 1771.41560939 -1088.0625 1769.5625 C-1084.11332633 1766.13231424 -1080.26977695 1762.58996482 -1076.42211914 1759.04711914 C-1073.6452363 1756.49459547 -1070.85027985 1753.97024254 -1068 1751.5 C-1063.09305328 1747.24190574 -1058.330206 1742.82655922 -1053.55126953 1738.42626953 C-1051.10192006 1736.17428659 -1048.64363859 1733.93207349 -1046.1875 1731.6875 C-1040.38209834 1726.37169901 -1034.62706299 1721.00256831 -1028.87890625 1715.625 C-1026.26704535 1713.18171023 -1023.64954573 1710.74468734 -1021.02734375 1708.3125 C-1014.98136019 1702.69912346 -1008.96025798 1697.09266589 -1003.22265625 1691.16015625 C-1001.33205218 1689.32271504 -999.40295778 1687.61621825 -997.40234375 1685.90234375 C-992.17437977 1681.36231758 -987.35862663 1676.42833433 -982.5 1671.5 C-980.70042547 1669.67460661 -978.89838231 1667.85164329 -977.09375 1666.03125 C-976.30677734 1665.23267578 -975.51980469 1664.43410156 -974.70898438 1663.61132812 C-972.61303078 1661.59093162 -970.49845811 1659.68670377 -968.29359436 1657.79161072 C-964.23488143 1654.25038735 -960.39508102 1650.5366229 -956.59350586 1646.72290039 C-955.90132462 1646.03247147 -955.20914337 1645.34204254 -954.49598694 1644.63069153 C-952.23310269 1642.37216978 -949.97385068 1640.11005565 -947.71484375 1637.84765625 C-946.1289351 1636.26242225 -944.54287811 1634.67733663 -942.9566803 1633.09239197 C-939.64258859 1629.77976965 -936.33029961 1626.46535814 -933.01928711 1623.1496582 C-928.79073812 1618.91541242 -924.55771506 1614.68567243 -920.32332516 1610.45726871 C-917.05029355 1607.18786323 -913.77966297 1603.91606414 -910.50973701 1600.64355278 C-908.95046796 1599.08362013 -907.39046538 1597.52442032 -905.82969475 1595.96599007 C-903.64305709 1593.78191271 -901.45968554 1591.59461951 -899.27709961 1589.40649414 C-898.64158173 1588.77300049 -898.00606384 1588.13950684 -897.35128784 1587.48681641 C-893.59718391 1583.71518266 -890.03299772 1579.82779535 -886.56628513 1575.79002285 C-884.1954086 1573.08047586 -881.66012634 1570.55405314 -879.09375 1568.03125 C-878.56535522 1567.50664185 -878.03696045 1566.98203369 -877.49255371 1566.44152832 C-875.27380416 1564.23883885 -873.04901227 1562.04229163 -870.82470703 1559.84521484 C-865.22188245 1554.30484475 -859.67189788 1548.78144855 -854.55664062 1542.77929688 C-851.8607334 1539.69777683 -848.92424412 1536.86268961 -846 1534 C-841.74424556 1529.79323266 -837.63598044 1525.55950092 -833.76953125 1520.98828125 C-831.00206888 1517.87870432 -828.01255237 1514.992171 -825.05053711 1512.07006836 C-821.77930062 1508.82587154 -818.730139 1505.46356007 -815.7421875 1501.9609375 C-813.03199516 1498.91045196 -810.09926167 1496.09113608 -807.1953125 1493.2265625 C-804.55993257 1490.55366826 -802.12233511 1487.74631697 -799.6796875 1484.8984375 C-797.50720681 1482.44302909 -795.18172931 1480.16887597 -792.8425293 1477.8737793 C-791.06850617 1476.06966806 -789.41051906 1474.21152353 -787.76171875 1472.29296875 C-784.05283845 1468.02751144 -780.20264489 1463.91233052 -776.3125 1459.8125 C-769.48782635 1452.59022659 -762.71823289 1445.32127202 -756 1438 C-755.53787109 1437.49662109 -755.07574219 1436.99324219 -754.59960938 1436.47460938 C-751.85064484 1433.47958368 -749.10419016 1430.48226819 -746.35888672 1427.48388672 C-744.53205051 1425.48900521 -742.70419937 1423.49505531 -740.8762207 1421.5012207 C-739.96184816 1420.50379711 -739.04762187 1419.50623942 -738.13354492 1418.50854492 C-735.79494313 1415.95624259 -733.45409299 1413.40606063 -731.109375 1410.859375 C-725.2715456 1404.51884372 -725.2715456 1404.51884372 -719.5625 1398.0625 C-715.93855356 1393.87967989 -712.16744254 1389.83728193 -708.40478516 1385.77978516 C-705.15384488 1382.26787256 -701.97015687 1378.70998582 -698.83984375 1375.08984375 C-696.43329809 1372.35629401 -693.96695051 1369.67887646 -691.5 1367 C-687.87907279 1363.06717596 -684.31041014 1359.09785918 -680.80859375 1355.05859375 C-678.5698875 1352.5104335 -676.28589788 1350.00589407 -674 1347.5 C-670.54671847 1343.71337002 -667.13900949 1339.8952368 -663.77734375 1336.02734375 C-661.70640513 1333.66510827 -659.60487152 1331.33204147 -657.5 1329 C-652.68985199 1323.66437363 -647.94019763 1318.28413119 -643.28515625 1312.8125 C-638.38425795 1307.05735347 -633.45821729 1301.35089524 -628.3125 1295.8125 C-624.92475627 1292.16586624 -621.68102204 1288.44382599 -618.5625 1284.5625 C-614.71954521 1279.78458662 -610.63168671 1275.31005016 -606.44384766 1270.83837891 C-602.52093146 1266.62570895 -598.88088976 1262.23586445 -595.27734375 1257.74609375 C-592.78173453 1254.73680853 -590.16233195 1251.86062978 -587.5 1249 C-583.21039593 1244.39001057 -579.19588878 1239.62216484 -575.24609375 1234.71484375 C-572.9116941 1231.89326505 -570.48009402 1229.19409288 -568 1226.5 C-564.70668301 1222.92207537 -561.55348679 1219.28460334 -558.5 1215.5 C-555.44651321 1211.71539666 -552.29331699 1208.07792463 -549 1204.5 C-544.98025464 1200.12829537 -541.20011805 1195.62213114 -537.46875 1191.00390625 C-534.59962776 1187.51283821 -531.65355539 1184.09621768 -528.6875 1180.6875 C-528.13634521 1180.05392578 -527.58519043 1179.42035156 -527.01733398 1178.76757812 C-525.89821841 1177.48151545 -524.77899624 1176.19554552 -523.65966797 1174.90966797 C-517.5392154 1167.86727609 -511.43969663 1160.80997199 -505.5625 1153.5625 C-501.42003621 1148.45772157 -497.11880901 1143.50377318 -492.79931641 1138.54931641 C-488.87737896 1134.04040674 -485.06960885 1129.45292983 -481.30859375 1124.80859375 C-478.58655909 1121.4970152 -475.79860269 1118.24686941 -473 1115 C-468.69715496 1110.0070824 -464.48834208 1104.95133148 -460.3359375 1099.83203125 C-457.6480305 1096.57328113 -454.88954946 1093.38115255 -452.125 1090.1875 C-447.64400952 1085.00316418 -443.36425033 1079.69867145 -439.16918945 1074.28149414 C-434.01038466 1067.65810944 -428.5120941 1061.32976949 -423 1055 C-424.48964621 1050.53938342 -426.97414354 1047.17707531 -429.8125 1043.5 C-451.57474963 1014.46070356 -467.74941851 981.35435004 -478.83300781 946.88916016 C-483.21880499 933.53670139 -489.35266156 921.08153436 -502.3125 914.5 C-524.84929411 904.11172102 -549.59527799 914.63733614 -571.1875 922.5625 C-572.71162461 923.13317707 -574.23531513 923.70501497 -575.75854492 924.27807617 C-606.74834727 935.85634133 -606.74834727 935.85634133 -620.078125 931.2421875 C-623.03868896 929.32865226 -625.2159556 927.01078731 -627 924 C-630.53053578 905.0804818 -619.58309215 887.60272028 -611.59619141 871.28271484 C-597.91747329 846.34905927 -597.91747329 846.34905927 -594 819 C-594.09023437 818.29230469 -594.18046875 817.58460938 -594.2734375 816.85546875 C-594.84438176 814.85031443 -594.84438176 814.85031443 -596.77734375 813.90234375 C-597.51082031 813.60457031 -598.24429688 813.30679688 -599 813 C-599.72316406 812.60941406 -600.44632813 812.21882813 -601.19140625 811.81640625 C-621.94984273 800.83871579 -644.70048688 802.76445064 -666.52270508 809.41210938 C-683.73919548 814.98011578 -700.49439314 822.68430826 -715.9375 832.125 C-742.90169073 848.04767442 -784.6036551 862.62763377 -816.4375 855.875 C-824.74039018 853.46412008 -832.5013818 848.54341467 -837 841 C-840.04205969 834.07736416 -841.21475759 827.3524259 -841.5 819.875 C-842.33021711 798.132078 -858.16990326 781.88344691 -873.17822266 767.66503906 C-877.60449861 763.61958181 -882.33727367 759.98253309 -887.13769531 756.39599609 C-889.13263747 754.90057406 -891.10971683 753.38334369 -893.0859375 751.86328125 C-899.6397722 746.85089375 -906.1026901 742.03307939 -913.375 738.0859375 C-913.91125 737.72757813 -914.4475 737.36921875 -915 737 C-915 736.34 -915 735.68 -915 735 C-893.48041417 726.90704428 -871.88093827 719.03970656 -850.25 711.25 C-849.26556852 710.89545935 -849.26556852 710.89545935 -848.26124954 710.53375626 C-842.29445576 708.38490905 -836.32740972 706.236763 -830.36009216 704.08937073 C-813.62518356 698.06701064 -796.89682691 692.02660176 -780.17697144 685.96257019 C-775.61467107 684.30821852 -771.05125895 682.65706833 -766.48535156 681.01269531 C-734.55481124 669.51175686 -703.37256873 657.20221006 -673 642 C-672.04689941 641.52739746 -671.09379883 641.05479492 -670.11181641 640.56787109 C-648.23664736 629.67601725 -627.46849864 616.76270142 -608 602 C-607.39381836 601.54399414 -606.78763672 601.08798828 -606.16308594 600.61816406 C-591.07806317 589.25639539 -575.91355743 577.34300972 -562.75 563.75390625 C-560.92548524 561.92531891 -559.02321312 560.24365832 -557.0625 558.5625 C-550.59331977 552.98124647 -544.69019755 546.90349993 -539.13671875 540.41796875 C-536.80248216 537.77648347 -534.39566597 535.21443459 -531.97680664 532.65063477 C-526.51142143 526.85667794 -521.23007246 521.01424207 -516.2578125 514.78515625 C-514.14484409 512.17867446 -511.97131845 509.64472985 -509.76660156 507.11645508 C-503.65748161 500.10158827 -497.95633586 492.83971982 -492.3515625 485.41796875 C-489.53021897 481.68296054 -486.65586888 477.99277217 -483.76489258 474.31152344 C-476.81493028 465.45510447 -470.15662314 456.42167058 -463.61767578 447.25878906 C-461.98241306 444.97544304 -460.33516303 442.7012618 -458.68359375 440.4296875 C-452.65800305 432.1397311 -446.72441866 423.79883478 -440.95361328 415.3293457 C-439.0126508 412.48275126 -437.06828793 409.63854095 -435.12011719 406.796875 C-426.94880023 394.87600875 -418.83216859 382.91896865 -410.75 370.9375 C-410.11393829 369.99480255 -409.47787659 369.0521051 -408.82254028 368.08084106 C-400.981415 356.45460714 -393.19397087 344.80032952 -385.55541992 333.03979492 C-379.24795409 323.34207598 -372.85263538 313.70346892 -366.44192505 304.07376099 C-365.20902129 302.22137239 -363.97695698 300.36842475 -362.74581909 298.51486206 C-353.83626174 285.10394282 -344.75722652 271.85913572 -335.0625 259 C-334.56580811 258.3397583 -334.06911621 257.6795166 -333.55737305 256.99926758 C-322.63205164 242.52732561 -311.18990747 228.48922213 -299.43261719 214.68701172 C-298.01400845 213.01649597 -296.60406198 211.33898958 -295.1953125 209.66015625 C-285.2801171 197.89909186 -274.78201593 186.65824123 -263.82543945 175.86108398 C-261.94914513 173.94815211 -260.18589159 171.96744942 -258.4375 169.9375 C-254.05201445 164.85748054 -249.41307004 160.17538429 -244.3125 155.8125 C-240.69857016 152.7038186 -237.34740988 149.38861358 -234 146 C-230.13703054 142.09450793 -226.23261556 138.32869341 -222.046875 134.765625 C-219.54285151 132.6056658 -217.12002302 130.36512007 -214.6875 128.125 C-210.22126486 124.05140091 -205.63078621 120.19172297 -200.92578125 116.3984375 C-198.27768561 114.22763547 -195.68853577 112.00705377 -193.10766602 109.7578125 C-186.0927862 103.65327569 -178.83564736 97.95181798 -171.4140625 92.3515625 C-168.44405381 90.10858033 -165.5043485 87.83314766 -162.5859375 85.5234375 C-153.50510249 78.34171224 -144.2390355 71.60229792 -134.6328125 65.140625 C-130.98770948 62.68640657 -127.40665446 60.15755677 -123.84326172 57.58666992 C-99.90260218 40.35503627 -74.01640793 25.37019279 -47.95263672 11.59716797 C-44.76747628 9.87422108 -41.63898664 8.06622263 -38.50390625 6.25390625 C-24.52408279 -1.59486387 -15.41791628 -5.10834576 0 0 Z " fill="#ED0000" transform="translate(4448,1216)"/>
<path d="M0 0 C1.86785156 0.47759766 1.86785156 0.47759766 3.7734375 0.96484375 C11.19760167 2.94405456 18.60082856 5.40124284 23 12 C23.75384484 16.14614663 23.16685882 17.73989655 20.875 21.3125 C17.2878608 25.1710067 12.89406388 27.77542017 8.453125 30.52709961 C-0.90774623 36.35679313 -8.93794586 43.73520551 -16.98046875 51.2265625 C-19.10423192 53.20070233 -21.28001353 55.09598545 -23.48535156 56.97827148 C-28.98023414 61.78106859 -34.10214183 66.95773413 -39.25390625 72.12109375 C-40.32414967 73.19066164 -41.39454134 74.26008121 -42.46507263 75.32936096 C-44.69635913 77.55918224 -46.92585057 79.7907784 -49.15405273 82.02368164 C-51.99031888 84.86564432 -54.83105231 87.70309242 -57.67315769 90.53921413 C-59.88076333 92.74318226 -62.08595221 94.94955619 -64.29044914 97.15663338 C-65.33615979 98.20300449 -66.38259535 99.24865174 -67.42981148 100.29351616 C-72.67250521 105.52701399 -77.83839884 110.78424153 -82.64610291 116.42591858 C-84.33429635 118.38866297 -86.13815272 120.20235435 -88 122 C-91.10246002 125.06117253 -93.98106424 128.23142268 -96.8203125 131.53515625 C-99.81343337 134.91985028 -102.90827399 138.20549159 -106 141.5 C-110.19978651 145.97933463 -114.36695265 150.46855521 -118.37109375 155.125 C-120.33665089 157.38751181 -122.35673309 159.59690683 -124.375 161.8125 C-127.48528851 165.25378205 -130.46478312 168.76321298 -133.375 172.375 C-136.61952517 176.38826284 -139.98747183 180.22415384 -143.5 184 C-147.71346489 188.53339224 -151.68293295 193.20950239 -155.5625 198.03125 C-158.42925516 201.52281077 -161.39760184 204.91540154 -164.375 208.3125 C-169.08789871 213.70306595 -173.59363432 219.20898388 -177.97607422 224.87036133 C-181.05417467 228.83454772 -184.23487496 232.68876113 -187.5 236.5 C-192.72201362 242.60532547 -197.69115196 248.88687031 -202.62060547 255.22949219 C-204.46284529 257.59408036 -206.31886245 259.94767548 -208.17480469 262.30151367 C-223.57971654 281.85035765 -238.56827829 301.72109212 -253 322 C-253.54978516 322.7724707 -254.09957031 323.54494141 -254.66601562 324.34082031 C-312.37277519 405.64278895 -348.04775221 483.23605307 -363.6875 640.9375 C-363.74834778 641.99057343 -363.80919556 643.04364685 -363.87188721 644.12863159 C-365.66775866 675.71947463 -366.20981967 707.30184094 -366.1875 738.9375 C-366.18723312 739.79397377 -366.18696625 740.65044754 -366.18669128 741.53287506 C-366.15719558 817.5391191 -362.53700563 893.39267737 -356.1484375 972.84375 C-356.05202469 974.04087616 -355.95561188 975.23800232 -355.85627747 976.47140503 C-355.38761641 982.2723306 -354.90954475 988.07223013 -354.41601562 993.87109375 C-353.3679584 1006.42679419 -352.67550288 1018.88833758 -352.73925781 1031.48974609 C-352.75013334 1034.03116 -352.73916526 1036.57188602 -352.7265625 1039.11328125 C-352.71030613 1057.21182539 -352.73729465 1080.30409769 -363 1096 C-366.30815447 1099.08259849 -368.12323237 1099.92441658 -372.625 1100.3125 C-386.56952979 1097.59226029 -401.13998612 1079.41273538 -410 1069 C-410.54068115 1068.37085693 -411.0813623 1067.74171387 -411.63842773 1067.09350586 C-441.74683619 1031.86161729 -464.55504909 991.06530177 -478.78149414 946.99194336 C-483.20171829 933.61011066 -489.31001185 921.10319362 -502.3125 914.5 C-524.84929411 904.11172102 -549.59527799 914.63733614 -571.1875 922.5625 C-572.71162461 923.13317707 -574.23531513 923.70501497 -575.75854492 924.27807617 C-606.74834727 935.85634133 -606.74834727 935.85634133 -620.078125 931.2421875 C-623.03868896 929.32865226 -625.2159556 927.01078731 -627 924 C-630.53053578 905.0804818 -619.58309215 887.60272028 -611.59619141 871.28271484 C-597.91747329 846.34905927 -597.91747329 846.34905927 -594 819 C-594.09023437 818.29230469 -594.18046875 817.58460938 -594.2734375 816.85546875 C-594.84438176 814.85031443 -594.84438176 814.85031443 -596.77734375 813.90234375 C-597.51082031 813.60457031 -598.24429688 813.30679688 -599 813 C-599.72316406 812.60941406 -600.44632813 812.21882813 -601.19140625 811.81640625 C-621.94984273 800.83871579 -644.70048688 802.76445064 -666.52270508 809.41210938 C-683.73919548 814.98011578 -700.49439314 822.68430826 -715.9375 832.125 C-742.90169073 848.04767442 -784.6036551 862.62763377 -816.4375 855.875 C-824.74039018 853.46412008 -832.5013818 848.54341467 -837 841 C-840.04205969 834.07736416 -841.21475759 827.3524259 -841.5 819.875 C-842.33021711 798.132078 -858.16990326 781.88344691 -873.17822266 767.66503906 C-877.60449861 763.61958181 -882.33727367 759.98253309 -887.13769531 756.39599609 C-889.13263747 754.90057406 -891.10971683 753.38334369 -893.0859375 751.86328125 C-899.6397722 746.85089375 -906.1026901 742.03307939 -913.375 738.0859375 C-913.91125 737.72757813 -914.4475 737.36921875 -915 737 C-915 736.34 -915 735.68 -915 735 C-893.48041417 726.90704428 -871.88093827 719.03970656 -850.25 711.25 C-849.59371235 711.01363956 -848.9374247 710.77727913 -848.26124954 710.53375626 C-842.29445576 708.38490905 -836.32740972 706.236763 -830.36009216 704.08937073 C-813.62518356 698.06701064 -796.89682691 692.02660176 -780.17697144 685.96257019 C-775.61467107 684.30821852 -771.05125895 682.65706833 -766.48535156 681.01269531 C-734.55481124 669.51175686 -703.37256873 657.20221006 -673 642 C-672.04689941 641.52739746 -671.09379883 641.05479492 -670.11181641 640.56787109 C-648.23664736 629.67601725 -627.46849864 616.76270142 -608 602 C-607.39381836 601.54399414 -606.78763672 601.08798828 -606.16308594 600.61816406 C-591.07806317 589.25639539 -575.91355743 577.34300972 -562.75 563.75390625 C-560.92548524 561.92531891 -559.02321312 560.24365832 -557.0625 558.5625 C-550.59331977 552.98124647 -544.69019755 546.90349993 -539.13671875 540.41796875 C-536.80248216 537.77648347 -534.39566597 535.21443459 -531.97680664 532.65063477 C-526.51142143 526.85667794 -521.23007246 521.01424207 -516.2578125 514.78515625 C-514.14484409 512.17867446 -511.97131845 509.64472985 -509.76660156 507.11645508 C-503.65748161 500.10158827 -497.95633586 492.83971982 -492.3515625 485.41796875 C-489.53021897 481.68296054 -486.65586888 477.99277217 -483.76489258 474.31152344 C-476.81493028 465.45510447 -470.15662314 456.42167058 -463.61767578 447.25878906 C-461.98241306 444.97544304 -460.33516303 442.7012618 -458.68359375 440.4296875 C-452.65800305 432.1397311 -446.72441866 423.79883478 -440.95361328 415.3293457 C-439.0126508 412.48275126 -437.06828793 409.63854095 -435.12011719 406.796875 C-426.94880023 394.87600875 -418.83216859 382.91896865 -410.75 370.9375 C-410.11393829 369.99480255 -409.47787659 369.0521051 -408.82254028 368.08084106 C-400.981415 356.45460714 -393.19397087 344.80032952 -385.55541992 333.03979492 C-379.24795409 323.34207598 -372.85263538 313.70346892 -366.44192505 304.07376099 C-365.20902129 302.22137239 -363.97695698 300.36842475 -362.74581909 298.51486206 C-353.83626174 285.10394282 -344.75722652 271.85913572 -335.0625 259 C-334.56580811 258.3397583 -334.06911621 257.6795166 -333.55737305 256.99926758 C-322.63205164 242.52732561 -311.18990747 228.48922213 -299.43261719 214.68701172 C-298.01400845 213.01649597 -296.60406198 211.33898958 -295.1953125 209.66015625 C-285.2801171 197.89909186 -274.78201593 186.65824123 -263.82543945 175.86108398 C-261.94914513 173.94815211 -260.18589159 171.96744942 -258.4375 169.9375 C-254.05201445 164.85748054 -249.41307004 160.17538429 -244.3125 155.8125 C-240.69857016 152.7038186 -237.34740988 149.38861358 -234 146 C-230.13703054 142.09450793 -226.23261556 138.32869341 -222.046875 134.765625 C-219.54285151 132.6056658 -217.12002302 130.36512007 -214.6875 128.125 C-210.22126486 124.05140091 -205.63078621 120.19172297 -200.92578125 116.3984375 C-198.27768561 114.22763547 -195.68853577 112.00705377 -193.10766602 109.7578125 C-186.0927862 103.65327569 -178.83564736 97.95181798 -171.4140625 92.3515625 C-168.44405381 90.10858033 -165.5043485 87.83314766 -162.5859375 85.5234375 C-153.50510249 78.34171224 -144.2390355 71.60229792 -134.6328125 65.140625 C-130.98770948 62.68640657 -127.40665446 60.15755677 -123.84326172 57.58666992 C-99.90260218 40.35503627 -74.01640793 25.37019279 -47.95263672 11.59716797 C-44.76747628 9.87422108 -41.63898664 8.06622263 -38.50390625 6.25390625 C-24.52408279 -1.59486387 -15.41791628 -5.10834576 0 0 Z " fill="#2AA700" transform="translate(4448,1216)"/>
<path d="M0 0 C2 2 2 2 2.5 4.6875 C1.77982834 9.45863725 -0.45330495 11.95196155 -4 15 C-6.81250243 16.91362525 -9.65623216 18.73600933 -12.546875 20.52709961 C-21.90774623 26.35679313 -29.93794586 33.73520551 -37.98046875 41.2265625 C-40.10423192 43.20070233 -42.28001353 45.09598545 -44.48535156 46.97827148 C-49.98023414 51.78106859 -55.10214183 56.95773413 -60.25390625 62.12109375 C-61.32414967 63.19066164 -62.39454134 64.26008121 -63.46507263 65.32936096 C-65.69635913 67.55918224 -67.92585057 69.7907784 -70.15405273 72.02368164 C-72.99031888 74.86564432 -75.83105231 77.70309242 -78.67315769 80.53921413 C-80.88076333 82.74318226 -83.08595221 84.94955619 -85.29044914 87.15663338 C-86.33615979 88.20300449 -87.38259535 89.24865174 -88.42981148 90.29351616 C-93.67250521 95.52701399 -98.83839884 100.78424153 -103.64610291 106.42591858 C-105.33429635 108.38866297 -107.13815272 110.20235435 -109 112 C-112.10246002 115.06117253 -114.98106424 118.23142268 -117.8203125 121.53515625 C-120.81343337 124.91985028 -123.90827399 128.20549159 -127 131.5 C-131.19978651 135.97933463 -135.36695265 140.46855521 -139.37109375 145.125 C-141.33665089 147.38751181 -143.35673309 149.59690683 -145.375 151.8125 C-148.48528851 155.25378205 -151.46478312 158.76321298 -154.375 162.375 C-157.61952517 166.38826284 -160.98747183 170.22415384 -164.5 174 C-168.71346489 178.53339224 -172.68293295 183.20950239 -176.5625 188.03125 C-179.42925516 191.52281077 -182.39760184 194.91540154 -185.375 198.3125 C-190.08789871 203.70306595 -194.59363432 209.20898388 -198.97607422 214.87036133 C-202.05417467 218.83454772 -205.23487496 222.68876113 -208.5 226.5 C-213.72201362 232.60532547 -218.69115196 238.88687031 -223.62060547 245.22949219 C-225.46284529 247.59408036 -227.31886245 249.94767548 -229.17480469 252.30151367 C-244.57971654 271.85035765 -259.56827829 291.72109212 -274 312 C-274.54978516 312.7724707 -275.09957031 313.54494141 -275.66601562 314.34082031 C-333.37277519 395.64278895 -369.04775221 473.23605307 -384.6875 630.9375 C-384.74834778 631.99057343 -384.80919556 633.04364685 -384.87188721 634.12863159 C-386.66775866 665.71947463 -387.20981967 697.30184094 -387.1875 728.9375 C-387.18723312 729.79397377 -387.18696625 730.65044754 -387.18669128 731.53287506 C-387.16641028 783.79414591 -385.34665421 835.87414816 -382.32128906 888.04443359 C-382.23341182 889.57168989 -382.14555136 891.09894716 -382.05770874 892.62620544 C-381.89569987 895.44049759 -381.72889025 898.25444178 -381.55874634 901.06825256 C-381.11356998 908.72328425 -380.89658171 916.33215313 -381 924 C-390.44350229 921.50277521 -399.23316593 917.65428009 -408.1875 913.8125 C-411.58443723 912.35974336 -414.98294011 910.9107178 -418.3828125 909.46484375 C-419.25339798 909.09441956 -420.12398346 908.72399536 -421.02095032 908.34234619 C-427.12167286 905.76018333 -433.2605889 903.29258771 -439.4296875 900.87890625 C-456.29868574 894.25252768 -472.20057102 887.81996604 -486.72900391 876.7265625 C-489.11325187 874.91389839 -491.53897511 873.17215827 -493.98046875 871.4375 C-503.75900988 864.4446338 -513.04021401 857.01034665 -522 849 C-522.90105469 848.19820312 -523.80210937 847.39640625 -524.73046875 846.5703125 C-526.37620551 845.09552824 -528.01706669 843.61528004 -529.65234375 842.12890625 C-531.21801848 840.70911802 -532.79362323 839.30020415 -534.37890625 837.90234375 C-544.19683232 829.21907366 -553.53978111 820.01632681 -562 810 C-562.86753906 809.01 -563.73507813 808.02 -564.62890625 807 C-579.6070414 789.87179782 -593.69859226 771.46194759 -605.3125 751.875 C-614.7306028 736.29123245 -628.60013917 725.87167995 -646.1875 721.1875 C-664.8902126 717.30496773 -680.78727763 722.01911308 -697.6875 729.75 C-699.71706675 730.67294614 -701.74797881 731.59229471 -703.78340149 732.5022583 C-705.60123487 733.31553803 -707.41346522 734.14130782 -709.2253418 734.96777344 C-710.140979 735.3084082 -711.05661621 735.64904297 -712 736 C-712.66 735.67 -713.32 735.34 -714 735 C-712.43765625 733.92685547 -712.43765625 733.92685547 -710.84375 732.83203125 C-701.11079115 726.08775352 -691.82325925 718.97326095 -682.71289062 711.41308594 C-680.43728963 709.53577998 -678.12691423 707.70413383 -675.8125 705.875 C-670.35462574 701.51963457 -665.03620937 697.00260781 -659.72509766 692.47070312 C-657.97952584 690.9825451 -656.23016685 689.49892806 -654.48046875 688.015625 C-647.78783828 682.32744252 -641.22276627 676.52917478 -634.77734375 670.5625 C-632.31060755 668.28658024 -629.81905652 666.04430749 -627.3125 663.8125 C-614.2953048 652.07869024 -601.77617992 639.87858274 -589.375 627.5 C-588.38735657 626.51623886 -588.38735657 626.51623886 -587.37976074 625.51260376 C-578.07782281 616.26479322 -578.07782281 616.26479322 -569.30322266 606.52148438 C-567.63497197 604.57383764 -565.84415781 602.78056617 -564 601 C-560.85421664 597.89624046 -557.92705984 594.68123702 -555.046875 591.33203125 C-552.41832618 588.33729147 -549.71052975 585.42044171 -547 582.5 C-540.08460376 575.03475574 -533.44103788 567.35892595 -526.82641602 559.62744141 C-523.04886314 555.21436326 -519.24755807 550.82252223 -515.4375 546.4375 C-507.25168224 537.00664929 -499.18468337 527.48953062 -491.3046875 517.80078125 C-488.7796684 514.73224109 -486.20511449 511.70963516 -483.625 508.6875 C-479.82400307 504.22926254 -476.15402591 499.69087484 -472.5625 495.0625 C-468.28691035 489.55434941 -463.8297201 484.23687272 -459.26757812 478.96459961 C-455.81017738 474.96374852 -452.46141708 470.89618607 -449.18359375 466.74609375 C-446.92002604 463.89942452 -444.62363045 461.08173297 -442.32226562 458.265625 C-436.99643726 451.74470281 -431.76766075 445.1703001 -426.66015625 438.4765625 C-423.4693395 434.29498426 -420.2329699 430.14901408 -417 426 C-411.30596378 418.68739329 -405.64267764 411.35229685 -400 404 C-398.33390746 401.83289152 -396.66693223 399.66646261 -395 397.5 C-394.16275248 396.41146444 -393.32551287 395.32292279 -392.48828125 394.234375 C-390.86133583 392.11928247 -389.2336002 390.00480548 -387.60546875 387.890625 C-382.32880588 381.03693042 -377.06912969 374.17047001 -371.81713867 367.29785156 C-367.75360902 361.98175368 -363.67605552 356.67669548 -359.59375 351.375 C-356.55392372 347.42322584 -353.52724909 343.4614118 -350.5 339.5 C-346.6744577 334.49395392 -342.84384594 329.49200772 -339 324.5 C-332.98055884 316.68153361 -326.991135 308.84016508 -321 301 C-314.20662638 292.11000325 -307.40749817 283.22476337 -300.58203125 274.359375 C-295.92713085 268.30782286 -291.29588323 262.23811634 -286.66015625 256.171875 C-285.05534906 254.0724096 -283.44972084 251.97357536 -281.84375 249.875 C-275.88680193 242.09019436 -269.93923058 234.29833275 -264 226.5 C-257.53577492 218.0123386 -251.06043916 209.53327708 -244.57666016 201.06054688 C-241.8836179 197.54099336 -239.19187132 194.02044912 -236.5 190.5 C-233.28576937 186.29640553 -230.07132745 182.09297414 -226.85546875 177.890625 C-216.1104689 163.84778663 -205.3922555 149.78445036 -194.69067383 135.70849609 C-193.31944225 133.91054749 -191.94301063 132.11655227 -190.5612793 130.32666016 C-187.78837727 126.72715791 -185.04413656 123.16423803 -182.6171875 119.3203125 C-175.50088151 108.58020494 -164.90890554 103.15581216 -153.98876953 96.76513672 C-149.76484747 94.27053155 -145.63241596 91.6423879 -141.5 89 C-131.38914405 82.59487426 -121.23365278 76.26121061 -111.08056641 69.92333984 C-106.05253516 66.78410778 -101.02632342 63.64196553 -96 60.5 C-89.94234112 56.71334447 -83.88424953 52.92739003 -77.82421875 49.14453125 C-67.94222252 42.97455391 -58.06869935 36.7922908 -48.22583008 30.56005859 C-42.82723878 27.14496071 -37.41154065 23.75806076 -31.99023438 20.37915039 C-21.2576549 13.68979266 -10.58633704 6.91851646 0 0 Z " fill="#219600" transform="translate(4469,1226)"/>
<path d="M0 0 C1.57566631 2.80573108 2.2571835 4.86511251 2.31884766 8.07714844 C2.33871231 8.87555649 2.35857697 9.67396454 2.37904358 10.49656677 C2.39059982 11.35879349 2.40215607 12.2210202 2.4140625 13.109375 C2.43347397 14.01708145 2.45288544 14.9247879 2.47288513 15.86000061 C2.53332146 18.8232376 2.5795414 21.78649844 2.625 24.75 C2.66284057 26.78345643 2.70117325 28.81690377 2.73999023 30.8503418 C3.04277668 47.56689511 3.11932739 64.28131477 3 81 C2.67 81 2.34 81 2 81 C1.51611448 78.06321053 1.03782589 75.12567724 0.5625 72.1875 C0.36043945 70.96643555 0.36043945 70.96643555 0.15429688 69.72070312 C-1.71033652 58.12359296 -2.19947515 46.67031549 -2.1875 34.9375 C-2.1882251 34.21265411 -2.1889502 33.48780823 -2.18969727 32.74099731 C-2.18847991 21.7237688 -1.71652408 10.89686268 0 0 Z " fill="#FE0000" transform="translate(531,3603)"/>
</svg>
